<svg width="871" height="355" viewBox="0 0 871 355" fill="none" xmlns="http://www.w3.org/2000/svg">
<rect width="871" height="355" fill="white"/>
<circle cx="108" cy="217" r="40" fill="#F9F0E4"/>
<circle cx="271" cy="217" r="40" fill="#393734"/>
<circle cx="436" cy="217" r="40" fill="#EFCEBF"/>
<circle cx="597" cy="217" r="40" fill="#5A5751"/>
<circle cx="760" cy="217" r="40" fill="#DAA993"/>
<path d="M65.9648 297.195H62.8711L61.9336 302H60.2578L61.1953 297.195H58.3945V295.59H61.5L62.3086 291.441H59.2852V289.812H62.625L63.5859 284.938H65.2617L64.3008 289.812H67.3945L68.3555 284.938H70.043L69.082 289.812H71.4727V291.441H68.7656L67.957 295.59H70.5938V297.195H67.6523L66.7148 302H65.0273L65.9648 297.195ZM63.1758 295.59H66.2695L67.0781 291.441H63.9844L63.1758 295.59ZM84.1397 294.465H76.9795V302H74.7295V284.938H85.2998V286.789H76.9795V292.625H84.1397V294.465ZM96.7013 294.5C96.2481 295.039 95.7052 295.473 95.0723 295.801C94.4473 296.129 93.7598 296.293 93.0098 296.293C92.0255 296.293 91.1661 296.051 90.4317 295.566C89.7052 295.082 89.1427 294.402 88.7442 293.527C88.3458 292.645 88.1466 291.672 88.1466 290.609C88.1466 289.469 88.3614 288.441 88.7911 287.527C89.2286 286.613 89.8458 285.914 90.6427 285.43C91.4395 284.945 92.3692 284.703 93.4317 284.703C95.1192 284.703 96.4473 285.336 97.4161 286.602C98.3927 287.859 98.8809 289.578 98.8809 291.758V292.391C98.8809 295.711 98.2247 298.137 96.9122 299.668C95.5997 301.191 93.6192 301.973 90.9708 302.012H90.5489V300.184H91.0059C92.795 300.152 94.17 299.688 95.1309 298.789C96.0919 297.883 96.6153 296.453 96.7013 294.5ZM93.3614 294.5C94.088 294.5 94.7559 294.277 95.3653 293.832C95.9825 293.387 96.4317 292.836 96.713 292.18V291.312C96.713 289.891 96.4044 288.734 95.7872 287.844C95.17 286.953 94.3888 286.508 93.4434 286.508C92.4903 286.508 91.7247 286.875 91.1466 287.609C90.5684 288.336 90.2794 289.297 90.2794 290.492C90.2794 291.656 90.5567 292.617 91.1114 293.375C91.6739 294.125 92.4239 294.5 93.3614 294.5ZM112.802 294.465H105.642V302H103.392V284.938H113.962V286.789H105.642V292.625H112.802V294.465ZM127.754 294.723C127.754 297.262 127.32 299.148 126.453 300.383C125.586 301.617 124.231 302.234 122.387 302.234C120.567 302.234 119.219 301.633 118.344 300.43C117.469 299.219 117.016 297.414 116.985 295.016V292.121C116.985 289.613 117.418 287.75 118.285 286.531C119.153 285.312 120.512 284.703 122.363 284.703C124.199 284.703 125.551 285.293 126.418 286.473C127.285 287.645 127.731 289.457 127.754 291.91V294.723ZM125.586 291.758C125.586 289.922 125.328 288.586 124.813 287.75C124.297 286.906 123.481 286.484 122.363 286.484C121.254 286.484 120.445 286.902 119.938 287.738C119.43 288.574 119.168 289.859 119.153 291.594V295.062C119.153 296.906 119.418 298.27 119.949 299.152C120.488 300.027 121.301 300.465 122.387 300.465C123.457 300.465 124.25 300.051 124.766 299.223C125.289 298.395 125.563 297.09 125.586 295.309V291.758ZM141.698 294.113H134.304V300.16H142.894V302H132.054V284.938H142.777V286.789H134.304V292.273H141.698V294.113ZM155.244 296.27H157.612V298.039H155.244V302H153.065V298.039H145.295V296.762L152.936 284.938H155.244V296.27ZM147.756 296.27H153.065V287.902L152.807 288.371L147.756 296.27Z" fill="black"/>
<path d="M228.965 297.195H225.871L224.934 302H223.258L224.195 297.195H221.395V295.59H224.5L225.309 291.441H222.285V289.812H225.625L226.586 284.938H228.262L227.301 289.812H230.395L231.355 284.938H233.043L232.082 289.812H234.473V291.441H231.766L230.957 295.59H233.594V297.195H230.652L229.715 302H228.027L228.965 297.195ZM226.176 295.59H229.27L230.078 291.441H226.984L226.176 295.59ZM240.319 292.414H241.948C242.972 292.398 243.776 292.129 244.362 291.605C244.948 291.082 245.241 290.375 245.241 289.484C245.241 287.484 244.245 286.484 242.253 286.484C241.315 286.484 240.565 286.754 240.003 287.293C239.448 287.824 239.171 288.531 239.171 289.414H237.003C237.003 288.062 237.495 286.941 238.48 286.051C239.472 285.152 240.73 284.703 242.253 284.703C243.862 284.703 245.124 285.129 246.038 285.98C246.952 286.832 247.409 288.016 247.409 289.531C247.409 290.273 247.167 290.992 246.683 291.688C246.206 292.383 245.554 292.902 244.726 293.246C245.663 293.543 246.386 294.035 246.894 294.723C247.409 295.41 247.667 296.25 247.667 297.242C247.667 298.773 247.167 299.988 246.167 300.887C245.167 301.785 243.866 302.234 242.265 302.234C240.663 302.234 239.358 301.801 238.351 300.934C237.351 300.066 236.851 298.922 236.851 297.5H239.03C239.03 298.398 239.323 299.117 239.909 299.656C240.495 300.195 241.28 300.465 242.265 300.465C243.312 300.465 244.112 300.191 244.667 299.645C245.222 299.098 245.499 298.312 245.499 297.289C245.499 296.297 245.194 295.535 244.585 295.004C243.976 294.473 243.097 294.199 241.948 294.184H240.319V292.414ZM259.912 294.5C259.459 295.039 258.916 295.473 258.283 295.801C257.658 296.129 256.971 296.293 256.221 296.293C255.236 296.293 254.377 296.051 253.643 295.566C252.916 295.082 252.354 294.402 251.955 293.527C251.557 292.645 251.358 291.672 251.358 290.609C251.358 289.469 251.572 288.441 252.002 287.527C252.44 286.613 253.057 285.914 253.854 285.43C254.65 284.945 255.58 284.703 256.643 284.703C258.33 284.703 259.658 285.336 260.627 286.602C261.604 287.859 262.092 289.578 262.092 291.758V292.391C262.092 295.711 261.436 298.137 260.123 299.668C258.811 301.191 256.83 301.973 254.182 302.012H253.76V300.184H254.217C256.006 300.152 257.381 299.688 258.342 298.789C259.303 297.883 259.826 296.453 259.912 294.5ZM256.572 294.5C257.299 294.5 257.967 294.277 258.576 293.832C259.193 293.387 259.643 292.836 259.924 292.18V291.312C259.924 289.891 259.615 288.734 258.998 287.844C258.381 286.953 257.6 286.508 256.654 286.508C255.701 286.508 254.936 286.875 254.358 287.609C253.779 288.336 253.49 289.297 253.49 290.492C253.49 291.656 253.768 292.617 254.322 293.375C254.885 294.125 255.635 294.5 256.572 294.5ZM269.193 292.414H270.821C271.845 292.398 272.65 292.129 273.235 291.605C273.821 291.082 274.114 290.375 274.114 289.484C274.114 287.484 273.118 286.484 271.126 286.484C270.189 286.484 269.439 286.754 268.876 287.293C268.321 287.824 268.044 288.531 268.044 289.414H265.876C265.876 288.062 266.368 286.941 267.353 286.051C268.345 285.152 269.603 284.703 271.126 284.703C272.735 284.703 273.997 285.129 274.911 285.98C275.825 286.832 276.282 288.016 276.282 289.531C276.282 290.273 276.04 290.992 275.556 291.688C275.079 292.383 274.427 292.902 273.599 293.246C274.536 293.543 275.259 294.035 275.767 294.723C276.282 295.41 276.54 296.25 276.54 297.242C276.54 298.773 276.04 299.988 275.04 300.887C274.04 301.785 272.739 302.234 271.138 302.234C269.536 302.234 268.232 301.801 267.224 300.934C266.224 300.066 265.724 298.922 265.724 297.5H267.903C267.903 298.398 268.196 299.117 268.782 299.656C269.368 300.195 270.153 300.465 271.138 300.465C272.185 300.465 272.985 300.191 273.54 299.645C274.095 299.098 274.372 298.312 274.372 297.289C274.372 296.297 274.068 295.535 273.458 295.004C272.849 294.473 271.97 294.199 270.821 294.184H269.193V292.414ZM291.492 286.156L284.426 302H282.153L289.195 286.719H279.961V284.938H291.492V286.156ZM298.066 292.414H299.695C300.718 292.398 301.523 292.129 302.109 291.605C302.695 291.082 302.988 290.375 302.988 289.484C302.988 287.484 301.991 286.484 299.999 286.484C299.062 286.484 298.312 286.754 297.749 287.293C297.195 287.824 296.917 288.531 296.917 289.414H294.749C294.749 288.062 295.241 286.941 296.226 286.051C297.218 285.152 298.476 284.703 299.999 284.703C301.609 284.703 302.87 285.129 303.784 285.98C304.698 286.832 305.155 288.016 305.155 289.531C305.155 290.273 304.913 290.992 304.429 291.688C303.952 292.383 303.3 292.902 302.472 293.246C303.409 293.543 304.132 294.035 304.64 294.723C305.155 295.41 305.413 296.25 305.413 297.242C305.413 298.773 304.913 299.988 303.913 300.887C302.913 301.785 301.613 302.234 300.011 302.234C298.409 302.234 297.105 301.801 296.097 300.934C295.097 300.066 294.597 298.922 294.597 297.5H296.777C296.777 298.398 297.07 299.117 297.655 299.656C298.241 300.195 299.027 300.465 300.011 300.465C301.058 300.465 301.859 300.191 302.413 299.645C302.968 299.098 303.245 298.312 303.245 297.289C303.245 296.297 302.941 295.535 302.331 295.004C301.722 294.473 300.843 294.199 299.695 294.184H298.066V292.414ZM318.502 296.27H320.869V298.039H318.502V302H316.323V298.039H308.553V296.762L316.194 284.938H318.502V296.27ZM311.014 296.27H316.323V287.902L316.065 288.371L311.014 296.27Z" fill="black"/>
<path d="M389.965 297.195H386.871L385.934 302H384.258L385.195 297.195H382.395V295.59H385.5L386.309 291.441H383.285V289.812H386.625L387.586 284.938H389.262L388.301 289.812H391.395L392.355 284.938H394.043L393.082 289.812H395.473V291.441H392.766L391.957 295.59H394.594V297.195H391.652L390.715 302H389.027L389.965 297.195ZM387.176 295.59H390.27L391.078 291.441H387.984L387.176 295.59ZM408.374 294.113H400.98V300.16H409.569V302H398.73V284.938H409.452V286.789H400.98V292.273H408.374V294.113ZM422.74 294.465H415.58V302H413.33V284.938H423.9V286.789H415.58V292.625H422.74V294.465ZM440.107 296.586C439.896 298.391 439.228 299.785 438.103 300.77C436.985 301.746 435.497 302.234 433.638 302.234C431.622 302.234 430.005 301.512 428.786 300.066C427.575 298.621 426.97 296.688 426.97 294.266V292.625C426.97 291.039 427.251 289.645 427.814 288.441C428.384 287.238 429.189 286.316 430.228 285.676C431.267 285.027 432.47 284.703 433.837 284.703C435.65 284.703 437.103 285.211 438.196 286.227C439.29 287.234 439.927 288.633 440.107 290.422H437.845C437.65 289.062 437.224 288.078 436.568 287.469C435.919 286.859 435.009 286.555 433.837 286.555C432.4 286.555 431.271 287.086 430.45 288.148C429.638 289.211 429.232 290.723 429.232 292.684V294.336C429.232 296.188 429.618 297.66 430.392 298.754C431.165 299.848 432.247 300.395 433.638 300.395C434.888 300.395 435.845 300.113 436.509 299.551C437.181 298.98 437.626 297.992 437.845 296.586H440.107ZM453.793 294.113H446.399V300.16H454.988V302H444.149V284.938H454.871V286.789H446.399V292.273H453.793V294.113ZM458.749 302V284.938H464.327C466.179 284.938 467.57 285.32 468.499 286.086C469.437 286.852 469.905 287.984 469.905 289.484C469.905 290.281 469.679 290.988 469.226 291.605C468.773 292.215 468.155 292.688 467.374 293.023C468.296 293.281 469.023 293.773 469.554 294.5C470.093 295.219 470.363 296.078 470.363 297.078C470.363 298.609 469.866 299.812 468.874 300.688C467.882 301.562 466.48 302 464.667 302H458.749ZM460.999 294.02V300.16H464.714C465.761 300.16 466.585 299.891 467.187 299.352C467.796 298.805 468.101 298.055 468.101 297.102C468.101 295.047 466.984 294.02 464.749 294.02H460.999ZM460.999 292.215H464.398C465.382 292.215 466.167 291.969 466.753 291.477C467.347 290.984 467.644 290.316 467.644 289.473C467.644 288.535 467.37 287.855 466.823 287.434C466.277 287.004 465.445 286.789 464.327 286.789H460.999V292.215ZM484.073 294.465H476.912V302H474.662V284.938H485.233V286.789H476.912V292.625H484.073V294.465Z" fill="black"/>
<path d="M553.965 297.195H550.871L549.934 302H548.258L549.195 297.195H546.395V295.59H549.5L550.309 291.441H547.285V289.812H550.625L551.586 284.938H553.262L552.301 289.812H555.395L556.355 284.938H558.043L557.082 289.812H559.473V291.441H556.766L555.957 295.59H558.594V297.195H555.652L554.715 302H553.027L553.965 297.195ZM551.176 295.59H554.27L555.078 291.441H551.984L551.176 295.59ZM563.163 293.445L564.03 284.938H572.773V286.941H565.87L565.355 291.594C566.19 291.102 567.14 290.855 568.202 290.855C569.757 290.855 570.991 291.371 571.905 292.402C572.819 293.426 573.276 294.812 573.276 296.562C573.276 298.32 572.8 299.707 571.847 300.723C570.901 301.73 569.577 302.234 567.874 302.234C566.366 302.234 565.136 301.816 564.183 300.98C563.23 300.145 562.687 298.988 562.554 297.512H564.605C564.737 298.488 565.085 299.227 565.648 299.727C566.21 300.219 566.952 300.465 567.874 300.465C568.882 300.465 569.671 300.121 570.241 299.434C570.819 298.746 571.108 297.797 571.108 296.586C571.108 295.445 570.796 294.531 570.171 293.844C569.554 293.148 568.73 292.801 567.698 292.801C566.753 292.801 566.011 293.008 565.472 293.422L564.898 293.891L563.163 293.445ZM586.588 297.547H579.44L577.834 302H575.514L582.029 284.938H583.998L590.525 302H588.217L586.588 297.547ZM580.119 295.695H585.92L583.014 287.715L580.119 295.695ZM594.216 293.445L595.083 284.938H603.825V286.941H596.923L596.407 291.594C597.243 291.102 598.193 290.855 599.255 290.855C600.81 290.855 602.044 291.371 602.958 292.402C603.872 293.426 604.329 294.812 604.329 296.562C604.329 298.32 603.853 299.707 602.9 300.723C601.954 301.73 600.63 302.234 598.927 302.234C597.419 302.234 596.189 301.816 595.235 300.98C594.282 300.145 593.739 298.988 593.607 297.512H595.657C595.79 298.488 596.138 299.227 596.7 299.727C597.263 300.219 598.005 300.465 598.927 300.465C599.935 300.465 600.724 300.121 601.294 299.434C601.872 298.746 602.161 297.797 602.161 296.586C602.161 295.445 601.849 294.531 601.224 293.844C600.607 293.148 599.782 292.801 598.751 292.801C597.806 292.801 597.064 293.008 596.525 293.422L595.95 293.891L594.216 293.445ZM618.672 286.156L611.606 302H609.332L616.375 286.719H607.141V284.938H618.672V286.156ZM623.089 293.445L623.956 284.938H632.698V286.941H625.796L625.28 291.594C626.116 291.102 627.066 290.855 628.128 290.855C629.683 290.855 630.917 291.371 631.831 292.402C632.745 293.426 633.202 294.812 633.202 296.562C633.202 298.32 632.726 299.707 631.773 300.723C630.827 301.73 629.503 302.234 627.8 302.234C626.292 302.234 625.062 301.816 624.109 300.98C623.155 300.145 622.613 298.988 622.48 297.512H624.53C624.663 298.488 625.011 299.227 625.573 299.727C626.136 300.219 626.878 300.465 627.8 300.465C628.808 300.465 629.597 300.121 630.167 299.434C630.745 298.746 631.034 297.797 631.034 296.586C631.034 295.445 630.722 294.531 630.097 293.844C629.48 293.148 628.655 292.801 627.624 292.801C626.679 292.801 625.937 293.008 625.398 293.422L624.823 293.891L623.089 293.445ZM643.655 302H641.475V287.551L637.104 289.156V287.188L643.315 284.855H643.655V302Z" fill="black"/>
<path d="M714.965 297.195H711.871L710.934 302H709.258L710.195 297.195H707.395V295.59H710.5L711.309 291.441H708.285V289.812H711.625L712.586 284.938H714.262L713.301 289.812H716.395L717.355 284.938H719.043L718.082 289.812H720.473V291.441H717.766L716.957 295.59H719.594V297.195H716.652L715.715 302H714.027L714.965 297.195ZM712.176 295.59H715.27L716.078 291.441H712.984L712.176 295.59ZM723.73 302V284.938H728.546C730.03 284.938 731.343 285.266 732.483 285.922C733.624 286.578 734.503 287.512 735.12 288.723C735.745 289.934 736.062 291.324 736.069 292.895V293.984C736.069 295.594 735.757 297.004 735.132 298.215C734.515 299.426 733.628 300.355 732.472 301.004C731.323 301.652 729.983 301.984 728.452 302H723.73ZM725.98 286.789V300.16H728.347C730.081 300.16 731.429 299.621 732.39 298.543C733.358 297.465 733.843 295.93 733.843 293.938V292.941C733.843 291.004 733.386 289.5 732.472 288.43C731.565 287.352 730.276 286.805 728.605 286.789H725.98ZM749.604 297.547H742.455L740.85 302H738.529L745.045 284.938H747.014L753.541 302H751.232L749.604 297.547ZM743.135 295.695H748.936L746.029 287.715L743.135 295.695ZM766.22 297.547H759.071L757.466 302H755.146L761.661 284.938H763.63L770.157 302H767.849L766.22 297.547ZM759.751 295.695H765.552L762.646 287.715L759.751 295.695ZM781.16 294.5C780.707 295.039 780.164 295.473 779.531 295.801C778.906 296.129 778.219 296.293 777.469 296.293C776.485 296.293 775.625 296.051 774.891 295.566C774.164 295.082 773.602 294.402 773.203 293.527C772.805 292.645 772.606 291.672 772.606 290.609C772.606 289.469 772.82 288.441 773.25 287.527C773.688 286.613 774.305 285.914 775.102 285.43C775.899 284.945 776.828 284.703 777.891 284.703C779.578 284.703 780.906 285.336 781.875 286.602C782.852 287.859 783.34 289.578 783.34 291.758V292.391C783.34 295.711 782.684 298.137 781.371 299.668C780.059 301.191 778.078 301.973 775.43 302.012H775.008V300.184H775.465C777.254 300.152 778.629 299.688 779.59 298.789C780.551 297.883 781.074 296.453 781.16 294.5ZM777.82 294.5C778.547 294.5 779.215 294.277 779.824 293.832C780.442 293.387 780.891 292.836 781.172 292.18V291.312C781.172 289.891 780.863 288.734 780.246 287.844C779.629 286.953 778.848 286.508 777.902 286.508C776.949 286.508 776.184 286.875 775.606 287.609C775.027 288.336 774.738 289.297 774.738 290.492C774.738 291.656 775.016 292.617 775.57 293.375C776.133 294.125 776.883 294.5 777.82 294.5ZM795.597 294.5C795.144 295.039 794.601 295.473 793.968 295.801C793.343 296.129 792.655 296.293 791.905 296.293C790.921 296.293 790.062 296.051 789.327 295.566C788.601 295.082 788.038 294.402 787.64 293.527C787.241 292.645 787.042 291.672 787.042 290.609C787.042 289.469 787.257 288.441 787.687 287.527C788.124 286.613 788.741 285.914 789.538 285.43C790.335 284.945 791.265 284.703 792.327 284.703C794.015 284.703 795.343 285.336 796.312 286.602C797.288 287.859 797.777 289.578 797.777 291.758V292.391C797.777 295.711 797.12 298.137 795.808 299.668C794.495 301.191 792.515 301.973 789.866 302.012H789.445V300.184H789.902C791.691 300.152 793.066 299.688 794.027 298.789C794.988 297.883 795.511 296.453 795.597 294.5ZM792.257 294.5C792.984 294.5 793.652 294.277 794.261 293.832C794.878 293.387 795.327 292.836 795.609 292.18V291.312C795.609 289.891 795.3 288.734 794.683 287.844C794.066 286.953 793.284 286.508 792.339 286.508C791.386 286.508 790.62 286.875 790.042 287.609C789.464 288.336 789.175 289.297 789.175 290.492C789.175 291.656 789.452 292.617 790.007 293.375C790.57 294.125 791.32 294.5 792.257 294.5ZM804.877 292.414H806.506C807.53 292.398 808.334 292.129 808.92 291.605C809.506 291.082 809.799 290.375 809.799 289.484C809.799 287.484 808.803 286.484 806.811 286.484C805.873 286.484 805.123 286.754 804.561 287.293C804.006 287.824 803.729 288.531 803.729 289.414H801.561C801.561 288.062 802.053 286.941 803.037 286.051C804.03 285.152 805.287 284.703 806.811 284.703C808.42 284.703 809.682 285.129 810.596 285.98C811.51 286.832 811.967 288.016 811.967 289.531C811.967 290.273 811.725 290.992 811.24 291.688C810.764 292.383 810.112 292.902 809.283 293.246C810.221 293.543 810.944 294.035 811.451 294.723C811.967 295.41 812.225 296.25 812.225 297.242C812.225 298.773 811.725 299.988 810.725 300.887C809.725 301.785 808.424 302.234 806.823 302.234C805.221 302.234 803.916 301.801 802.908 300.934C801.908 300.066 801.408 298.922 801.408 297.5H803.588C803.588 298.398 803.881 299.117 804.467 299.656C805.053 300.195 805.838 300.465 806.823 300.465C807.869 300.465 808.67 300.191 809.225 299.645C809.78 299.098 810.057 298.312 810.057 297.289C810.057 296.297 809.752 295.535 809.143 295.004C808.533 294.473 807.655 294.199 806.506 294.184H804.877V292.414Z" fill="black"/>
<path d="M214.767 73.664C214.767 69.312 215.748 65.408 217.711 61.952C219.674 58.4533 222.34 55.7227 225.711 53.76C229.124 51.7973 232.9 50.816 237.039 50.816C241.903 50.816 246.148 51.9893 249.775 54.336C253.402 56.6827 256.047 60.0107 257.711 64.32H250.735C249.498 61.632 247.706 59.5627 245.359 58.112C243.055 56.6613 240.282 55.936 237.039 55.936C233.924 55.936 231.13 56.6613 228.655 58.112C226.18 59.5627 224.239 61.632 222.831 64.32C221.423 66.9653 220.719 70.08 220.719 73.664C220.719 77.2053 221.423 80.32 222.831 83.008C224.239 85.6533 226.18 87.7013 228.655 89.152C231.13 90.6027 233.924 91.328 237.039 91.328C240.282 91.328 243.055 90.624 245.359 89.216C247.706 87.7653 249.498 85.696 250.735 83.008H257.711C256.047 87.2747 253.402 90.5813 249.775 92.928C246.148 95.232 241.903 96.384 237.039 96.384C232.9 96.384 229.124 95.424 225.711 93.504C222.34 91.5413 219.674 88.832 217.711 85.376C215.748 81.92 214.767 78.016 214.767 73.664ZM284.237 96.576C280.951 96.576 277.965 95.8293 275.277 94.336C272.631 92.8427 270.541 90.7307 269.005 88C267.511 85.2267 266.765 82.0267 266.765 78.4C266.765 74.816 267.533 71.6587 269.069 68.928C270.647 66.1547 272.781 64.0427 275.469 62.592C278.157 61.0987 281.165 60.352 284.493 60.352C287.821 60.352 290.829 61.0987 293.517 62.592C296.205 64.0427 298.317 66.1333 299.853 68.864C301.431 71.5947 302.221 74.7733 302.221 78.4C302.221 82.0267 301.41 85.2267 299.789 88C298.21 90.7307 296.055 92.8427 293.325 94.336C290.594 95.8293 287.565 96.576 284.237 96.576ZM284.237 91.456C286.327 91.456 288.29 90.9653 290.125 89.984C291.959 89.0027 293.431 87.5307 294.541 85.568C295.693 83.6053 296.269 81.216 296.269 78.4C296.269 75.584 295.714 73.1947 294.605 71.232C293.495 69.2693 292.045 67.8187 290.253 66.88C288.461 65.8987 286.519 65.408 284.429 65.408C282.295 65.408 280.333 65.8987 278.541 66.88C276.791 67.8187 275.383 69.2693 274.317 71.232C273.25 73.1947 272.717 75.584 272.717 78.4C272.717 81.2587 273.229 83.6693 274.253 85.632C275.319 87.5947 276.727 89.0667 278.477 90.048C280.226 90.9867 282.146 91.456 284.237 91.456ZM318.262 48.64V96H312.438V48.64H318.262ZM346.044 96.576C342.759 96.576 339.772 95.8293 337.084 94.336C334.439 92.8427 332.348 90.7307 330.812 88C329.319 85.2267 328.572 82.0267 328.572 78.4C328.572 74.816 329.34 71.6587 330.876 68.928C332.455 66.1547 334.588 64.0427 337.276 62.592C339.964 61.0987 342.972 60.352 346.3 60.352C349.628 60.352 352.636 61.0987 355.324 62.592C358.012 64.0427 360.124 66.1333 361.66 68.864C363.239 71.5947 364.028 74.7733 364.028 78.4C364.028 82.0267 363.217 85.2267 361.596 88C360.017 90.7307 357.863 92.8427 355.132 94.336C352.401 95.8293 349.372 96.576 346.044 96.576ZM346.044 91.456C348.135 91.456 350.097 90.9653 351.932 89.984C353.767 89.0027 355.239 87.5307 356.348 85.568C357.5 83.6053 358.076 81.216 358.076 78.4C358.076 75.584 357.521 73.1947 356.412 71.232C355.303 69.2693 353.852 67.8187 352.06 66.88C350.268 65.8987 348.327 65.408 346.236 65.408C344.103 65.408 342.14 65.8987 340.348 66.88C338.599 67.8187 337.191 69.2693 336.124 71.232C335.057 73.1947 334.524 75.584 334.524 78.4C334.524 81.2587 335.036 83.6693 336.06 85.632C337.127 87.5947 338.535 89.0667 340.284 90.048C342.033 90.9867 343.953 91.456 346.044 91.456ZM380.07 66.624C381.094 64.6187 382.544 63.0613 384.422 61.952C386.342 60.8427 388.667 60.288 391.398 60.288V66.304H389.862C383.334 66.304 380.07 69.8453 380.07 76.928V96H374.246V60.928H380.07V66.624ZM426.127 67.392C427.279 65.3867 428.986 63.7227 431.247 62.4C433.551 61.0347 436.218 60.352 439.247 60.352C442.362 60.352 445.178 61.0987 447.695 62.592C450.255 64.0853 452.26 66.1973 453.711 68.928C455.162 71.616 455.887 74.752 455.887 78.336C455.887 81.8773 455.162 85.0347 453.711 87.808C452.26 90.5813 450.255 92.736 447.695 94.272C445.178 95.808 442.362 96.576 439.247 96.576C436.26 96.576 433.615 95.9147 431.311 94.592C429.05 93.2267 427.322 91.5413 426.127 89.536V112.64H420.303V60.928H426.127V67.392ZM449.935 78.336C449.935 75.6907 449.402 73.3867 448.335 71.424C447.268 69.4613 445.818 67.968 443.983 66.944C442.191 65.92 440.207 65.408 438.031 65.408C435.898 65.408 433.914 65.9413 432.079 67.008C430.287 68.032 428.836 69.5467 427.727 71.552C426.66 73.5147 426.127 75.7973 426.127 78.4C426.127 81.0453 426.66 83.3707 427.727 85.376C428.836 87.3387 430.287 88.8533 432.079 89.92C433.914 90.944 435.898 91.456 438.031 91.456C440.207 91.456 442.191 90.944 443.983 89.92C445.818 88.8533 447.268 87.3387 448.335 85.376C449.402 83.3707 449.935 81.024 449.935 78.336ZM463.937 78.336C463.937 74.752 464.662 71.616 466.113 68.928C467.564 66.1973 469.548 64.0853 472.065 62.592C474.625 61.0987 477.462 60.352 480.577 60.352C483.649 60.352 486.316 61.0133 488.577 62.336C490.838 63.6587 492.524 65.3227 493.633 67.328V60.928H499.521V96H493.633V89.472C492.481 91.52 490.753 93.2267 488.449 94.592C486.188 95.9147 483.542 96.576 480.513 96.576C477.398 96.576 474.582 95.808 472.065 94.272C469.548 92.736 467.564 90.5813 466.113 87.808C464.662 85.0347 463.937 81.8773 463.937 78.336ZM493.633 78.4C493.633 75.7547 493.1 73.4507 492.033 71.488C490.966 69.5253 489.516 68.032 487.681 67.008C485.889 65.9413 483.905 65.408 481.729 65.408C479.553 65.408 477.569 65.92 475.777 66.944C473.985 67.968 472.556 69.4613 471.489 71.424C470.422 73.3867 469.889 75.6907 469.889 78.336C469.889 81.024 470.422 83.3707 471.489 85.376C472.556 87.3387 473.985 88.8533 475.777 89.92C477.569 90.944 479.553 91.456 481.729 91.456C483.905 91.456 485.889 90.944 487.681 89.92C489.516 88.8533 490.966 87.3387 492.033 85.376C493.1 83.3707 493.633 81.0453 493.633 78.4ZM517.747 48.64V96H511.923V48.64H517.747ZM562.233 77.12C562.233 78.2293 562.169 79.4027 562.041 80.64H534.009C534.222 84.096 535.396 86.8053 537.529 88.768C539.705 90.688 542.329 91.648 545.401 91.648C547.918 91.648 550.009 91.072 551.673 89.92C553.38 88.7253 554.574 87.1467 555.257 85.184H561.529C560.59 88.5547 558.713 91.3067 555.897 93.44C553.081 95.5307 549.582 96.576 545.401 96.576C542.073 96.576 539.086 95.8293 536.441 94.336C533.838 92.8427 531.79 90.7307 530.297 88C528.804 85.2267 528.057 82.0267 528.057 78.4C528.057 74.7733 528.782 71.5947 530.233 68.864C531.684 66.1333 533.71 64.0427 536.313 62.592C538.958 61.0987 541.988 60.352 545.401 60.352C548.729 60.352 551.673 61.0773 554.233 62.528C556.793 63.9787 558.756 65.984 560.121 68.544C561.529 71.0613 562.233 73.92 562.233 77.12ZM556.217 75.904C556.217 73.6853 555.726 71.7867 554.745 70.208C553.764 68.5867 552.42 67.3707 550.713 66.56C549.049 65.7067 547.193 65.28 545.145 65.28C542.201 65.28 539.684 66.2187 537.593 68.096C535.545 69.9733 534.372 72.576 534.073 75.904H556.217ZM579.584 65.728V86.4C579.584 88.1067 579.947 89.3227 580.672 90.048C581.398 90.7307 582.656 91.072 584.448 91.072H588.736V96H583.488C580.246 96 577.814 95.2533 576.192 93.76C574.571 92.2667 573.76 89.8133 573.76 86.4V65.728H569.216V60.928H573.76V52.096H579.584V60.928H588.736V65.728H579.584ZM605.457 65.728V86.4C605.457 88.1067 605.82 89.3227 606.545 90.048C607.27 90.7307 608.529 91.072 610.321 91.072H614.609V96H609.361C606.118 96 603.686 95.2533 602.065 93.76C600.444 92.2667 599.633 89.8133 599.633 86.4V65.728H595.089V60.928H599.633V52.096H605.457V60.928H614.609V65.728H605.457ZM656.225 77.12C656.225 78.2293 656.161 79.4027 656.033 80.64H628.001C628.215 84.096 629.388 86.8053 631.521 88.768C633.697 90.688 636.321 91.648 639.393 91.648C641.911 91.648 644.001 91.072 645.665 89.92C647.372 88.7253 648.567 87.1467 649.249 85.184H655.521C654.583 88.5547 652.705 91.3067 649.889 93.44C647.073 95.5307 643.575 96.576 639.393 96.576C636.065 96.576 633.079 95.8293 630.433 94.336C627.831 92.8427 625.783 90.7307 624.289 88C622.796 85.2267 622.049 82.0267 622.049 78.4C622.049 74.7733 622.775 71.5947 624.225 68.864C625.676 66.1333 627.703 64.0427 630.305 62.592C632.951 61.0987 635.98 60.352 639.393 60.352C642.721 60.352 645.665 61.0773 648.225 62.528C650.785 63.9787 652.748 65.984 654.113 68.544C655.521 71.0613 656.225 73.92 656.225 77.12ZM650.209 75.904C650.209 73.6853 649.719 71.7867 648.737 70.208C647.756 68.5867 646.412 67.3707 644.705 66.56C643.041 65.7067 641.185 65.28 639.137 65.28C636.193 65.28 633.676 66.2187 631.585 68.096C629.537 69.9733 628.364 72.576 628.065 75.904H650.209Z" fill="black"/>
</svg>
